<?xml version="1.0" encoding="UTF-8" standalone="no"?>
<!-- Created with Inkscape (http://www.inkscape.org/) -->

<svg
   xmlns:dc="http://purl.org/dc/elements/1.1/"
   xmlns:cc="http://creativecommons.org/ns#"
   xmlns:rdf="http://www.w3.org/1999/02/22-rdf-syntax-ns#"
   xmlns:svg="http://www.w3.org/2000/svg"
   xmlns="http://www.w3.org/2000/svg"
   xmlns:xlink="http://www.w3.org/1999/xlink"
   xmlns:sodipodi="http://sodipodi.sourceforge.net/DTD/sodipodi-0.dtd"
   xmlns:inkscape="http://www.inkscape.org/namespaces/inkscape"
   width="210mm"
   height="297mm"
   viewBox="0 0 744.09448819 1052.3622047"
   id="svg2"
   version="1.1"
   inkscape:version="0.91 r13725"
   sodipodi:docname="tiles.svg">
  <defs
     id="defs4">
    <linearGradient
       inkscape:collect="always"
       id="linearGradient4188">
      <stop
         style="stop-color:#000000;stop-opacity:0"
         offset="0"
         id="stop4190" />
      <stop
         style="stop-color:#000000;stop-opacity:0.3137255"
         offset="1"
         id="stop4192" />
    </linearGradient>
    <radialGradient
       inkscape:collect="always"
       xlink:href="#linearGradient4188"
       id="radialGradient4194"
       cx="187.14285"
       cy="476.6479"
       fx="187.14285"
       fy="476.6479"
       r="78.571426"
       gradientUnits="userSpaceOnUse"
       gradientTransform="translate(-95.714286,-222.57143)" />
    <radialGradient
       inkscape:collect="always"
       xlink:href="#linearGradient4188"
       id="radialGradient4198"
       gradientUnits="userSpaceOnUse"
       cx="187.14285"
       cy="476.6479"
       fx="187.14285"
       fy="476.6479"
       r="78.571426"
       gradientTransform="translate(101.71428,-222.57143)" />
    <radialGradient
       inkscape:collect="always"
       xlink:href="#linearGradient4188"
       id="radialGradient4215"
       gradientUnits="userSpaceOnUse"
       cx="187.14285"
       cy="476.6479"
       fx="187.14285"
       fy="476.6479"
       r="78.571426"
       gradientTransform="translate(-95.714286,-56.530043)" />
    <radialGradient
       inkscape:collect="always"
       xlink:href="#linearGradient4188"
       id="radialGradient4217"
       gradientUnits="userSpaceOnUse"
       gradientTransform="translate(101.71428,-56.530043)"
       cx="187.14285"
       cy="476.6479"
       fx="187.14285"
       fy="476.6479"
       r="78.571426" />
    <radialGradient
       inkscape:collect="always"
       xlink:href="#linearGradient4188"
       id="radialGradient4177"
       gradientUnits="userSpaceOnUse"
       gradientTransform="translate(-95.714289,286.43005)"
       cx="187.14285"
       cy="476.6479"
       fx="187.14285"
       fy="476.6479"
       r="78.571426" />
    <radialGradient
       inkscape:collect="always"
       xlink:href="#linearGradient4188"
       id="radialGradient4185"
       gradientUnits="userSpaceOnUse"
       gradientTransform="translate(-95.714289,466.2372)"
       cx="187.14285"
       cy="476.6479"
       fx="187.14285"
       fy="476.6479"
       r="78.571426" />
  </defs>
  <sodipodi:namedview
     id="base"
     pagecolor="#ffffff"
     bordercolor="#666666"
     borderopacity="1.0"
     inkscape:pageopacity="0.0"
     inkscape:pageshadow="2"
     inkscape:zoom="1.4"
     inkscape:cx="446.66596"
     inkscape:cy="214.834"
     inkscape:document-units="px"
     inkscape:current-layer="layer1"
     showgrid="false"
     inkscape:snap-bbox="true"
     inkscape:snap-bbox-midpoints="true"
     inkscape:window-width="1295"
     inkscape:window-height="744"
     inkscape:window-x="71"
     inkscape:window-y="24"
     inkscape:window-maximized="1"
     inkscape:object-nodes="true"
     inkscape:snap-global="true"
     showguides="false"
     inkscape:guide-bbox="true"
     inkscape:bbox-nodes="true">
    <sodipodi:guide
       position="517.42853,185.71432"
       orientation="1,0"
       id="guide4228" />
    <sodipodi:guide
       position="517.42858,185.71431"
       orientation="0,1"
       id="guide4230" />
  </sodipodi:namedview>
  <metadata
     id="metadata7">
    <rdf:RDF>
      <cc:Work
         rdf:about="">
        <dc:format>image/svg+xml</dc:format>
        <dc:type
           rdf:resource="http://purl.org/dc/dcmitype/StillImage" />
        <dc:title />
      </cc:Work>
    </rdf:RDF>
  </metadata>
  <g
     inkscape:label="Layer 1"
     inkscape:groupmode="layer"
     id="layer1">
    <rect
       style="opacity:1;fill:#4389d7;fill-opacity:1;fill-rule:nonzero;stroke:none;stroke-width:2;stroke-linecap:butt;stroke-linejoin:miter;stroke-miterlimit:4;stroke-dasharray:none;stroke-opacity:1"
       id="rect4136"
       width="157.14285"
       height="157.14285"
       x="12.857141"
       y="8.0764914" />
    <rect
       y="8.0764914"
       x="210.28572"
       height="157.14285"
       width="157.14285"
       id="rect4138"
       style="opacity:1;fill:#4389d7;fill-opacity:1;fill-rule:nonzero;stroke:none;stroke-width:2;stroke-linecap:butt;stroke-linejoin:miter;stroke-miterlimit:4;stroke-dasharray:none;stroke-opacity:1" />
    <rect
       style="opacity:1;fill:#4389d7;fill-opacity:1;fill-rule:nonzero;stroke:none;stroke-width:2;stroke-linecap:butt;stroke-linejoin:miter;stroke-miterlimit:4;stroke-dasharray:none;stroke-opacity:1"
       id="rect4140"
       width="157.14285"
       height="157.14285"
       x="421.42859"
       y="8.0764914" />
    <ellipse
       style="opacity:1;fill:#000000;fill-opacity:1;fill-rule:nonzero;stroke:none;stroke-width:2;stroke-linecap:butt;stroke-linejoin:miter;stroke-miterlimit:4;stroke-dasharray:none;stroke-opacity:1"
       id="path4142"
       cx="91.428566"
       cy="86.647919"
       rx="56.568542"
       ry="55.558392" />
    <path
       style="opacity:1;fill:#000000;fill-opacity:1;fill-rule:nonzero;stroke:none;stroke-width:2;stroke-linecap:butt;stroke-linejoin:miter;stroke-miterlimit:4;stroke-dasharray:none;stroke-opacity:1"
       d="m 323.14214,28.076829 -34.28501,34.28501 -34.285,-34.28501 -24.28608,24.28608 34.285,34.28501 -34.28501,34.285011 24.28609,24.28608 34.28501,-34.28501 34.28501,34.28501 24.28608,-24.28608 -34.28501,-34.285011 34.28501,-34.28501 -24.28609,-24.28608 z"
       id="rect4144"
       inkscape:connector-curvature="0" />
    <rect
       y="175.50505"
       x="12.857141"
       height="157.14285"
       width="157.14285"
       id="rect4170"
       style="opacity:1;fill:#4389d7;fill-opacity:1;fill-rule:nonzero;stroke:none;stroke-width:2;stroke-linecap:butt;stroke-linejoin:miter;stroke-miterlimit:4;stroke-dasharray:none;stroke-opacity:1" />
    <rect
       style="opacity:1;fill:#4389d7;fill-opacity:1;fill-rule:nonzero;stroke:none;stroke-width:2;stroke-linecap:butt;stroke-linejoin:miter;stroke-miterlimit:4;stroke-dasharray:none;stroke-opacity:1"
       id="rect4172"
       width="157.14285"
       height="157.14285"
       x="210.28572"
       y="175.50505" />
    <path
       style="opacity:1;fill:url(#radialGradient4194);fill-opacity:1;fill-rule:nonzero;stroke:none;stroke-width:2;stroke-linecap:butt;stroke-linejoin:miter;stroke-miterlimit:4;stroke-dasharray:none;stroke-opacity:1"
       d="m 12.857144,175.50505 157.142846,0 0,157.14285 -157.142846,0 z"
       id="rect4186"
       inkscape:connector-curvature="0" />
    <path
       style="opacity:1;fill:#000000;fill-opacity:1;fill-rule:nonzero;stroke:none;stroke-width:2;stroke-linecap:butt;stroke-linejoin:miter;stroke-miterlimit:4;stroke-dasharray:none;stroke-opacity:1"
       d="m 147.99711,254.07649 a 56.568542,55.558392 0 0 1 -56.568546,55.55839 56.568542,55.558392 0 0 1 -56.56854,-55.55839 56.568542,55.558392 0 0 1 56.56854,-55.55839 56.568542,55.558392 0 0 1 56.568546,55.55839 z"
       id="ellipse4174"
       inkscape:connector-curvature="0" />
    <path
       style="opacity:1;fill:url(#radialGradient4198);fill-opacity:1;fill-rule:nonzero;stroke:none;stroke-width:2;stroke-linecap:butt;stroke-linejoin:miter;stroke-miterlimit:4;stroke-dasharray:none;stroke-opacity:1"
       d="m 210.28571,175.50505 157.14285,0 0,157.14285 -157.14285,0 z"
       id="rect4196"
       inkscape:connector-curvature="0" />
    <path
       inkscape:connector-curvature="0"
       id="path4176"
       d="m 323.14214,195.5054 -34.28501,34.28501 -34.285,-34.28501 -24.28608,24.28608 34.285,34.28501 -34.28501,34.28501 24.28609,24.28608 34.28501,-34.28501 34.28501,34.28501 24.28608,-24.28608 -34.28501,-34.28501 34.28501,-34.28501 -24.28609,-24.28608 z"
       style="opacity:1;fill:#000000;fill-opacity:1;fill-rule:nonzero;stroke:none;stroke-width:2;stroke-linecap:butt;stroke-linejoin:miter;stroke-miterlimit:4;stroke-dasharray:none;stroke-opacity:1" />
    <rect
       style="opacity:1;fill:#4389d7;fill-opacity:1;fill-rule:nonzero;stroke:none;stroke-width:2;stroke-linecap:butt;stroke-linejoin:miter;stroke-miterlimit:4;stroke-dasharray:none;stroke-opacity:1"
       id="rect4203"
       width="157.14285"
       height="157.14285"
       x="12.857141"
       y="341.54639" />
    <rect
       y="341.54639"
       x="210.28572"
       height="157.14285"
       width="157.14285"
       id="rect4205"
       style="opacity:1;fill:#4389d7;fill-opacity:1;fill-rule:nonzero;stroke:none;stroke-width:2;stroke-linecap:butt;stroke-linejoin:miter;stroke-miterlimit:4;stroke-dasharray:none;stroke-opacity:1" />
    <path
       style="opacity:1;fill:url(#radialGradient4215);fill-opacity:1;fill-rule:nonzero;stroke:none;stroke-width:2;stroke-linecap:butt;stroke-linejoin:miter;stroke-miterlimit:4;stroke-dasharray:none;stroke-opacity:1"
       d="m 12.857984,341.54604 0,157.14258 157.142566,0 0,-157.14258 -157.142566,0 z m 78.57031,23.01367 a 56.568542,55.558392 0 0 1 56.568356,55.5586 56.568542,55.558392 0 0 1 -56.568356,55.55859 56.568542,55.558392 0 0 1 -56.56836,-55.55859 56.568542,55.558392 0 0 1 56.56836,-55.5586 z"
       id="path4207"
       inkscape:connector-curvature="0" />
    <path
       style="opacity:1;fill:url(#radialGradient4217);fill-opacity:1;fill-rule:nonzero;stroke:none;stroke-width:2;stroke-linecap:butt;stroke-linejoin:miter;stroke-miterlimit:4;stroke-dasharray:none;stroke-opacity:1"
       d="m 210.28571,341.54604 0,157.14258 157.14258,0 0,-157.14258 -157.14258,0 z m 44.28711,20 34.28516,34.28516 34.2832,-34.28516 24.28711,24.28711 -34.28516,34.28516 34.28516,34.28515 -24.28711,24.28516 -34.2832,-34.28516 -34.28516,34.28516 -24.28711,-24.28516 34.28516,-34.28515 -34.28516,-34.28516 24.28711,-24.28711 z"
       id="path4211"
       inkscape:connector-curvature="0" />
    <rect
       y="513.79077"
       x="12.857141"
       height="157.14285"
       width="157.14285"
       id="rect4163"
       style="opacity:1;fill:#4389d7;fill-opacity:1;fill-rule:nonzero;stroke:none;stroke-width:2;stroke-linecap:butt;stroke-linejoin:miter;stroke-miterlimit:4;stroke-dasharray:none;stroke-opacity:1"
       inkscape:export-xdpi="22.91"
       inkscape:export-ydpi="22.91" />
    <ellipse
       ry="42.606297"
       rx="43.436558"
       cy="592.36218"
       cx="91.428566"
       id="ellipse4165"
       style="opacity:1;fill:none;fill-opacity:1;fill-rule:nonzero;stroke:#000000;stroke-width:34.34600067;stroke-linecap:butt;stroke-linejoin:miter;stroke-miterlimit:4;stroke-dasharray:none;stroke-opacity:1" />
    <rect
       style="opacity:1;fill:#4389d7;fill-opacity:1;fill-rule:nonzero;stroke:none;stroke-width:2;stroke-linecap:butt;stroke-linejoin:miter;stroke-miterlimit:4;stroke-dasharray:none;stroke-opacity:1"
       id="rect4171"
       width="157.14285"
       height="157.14285"
       x="12.857141"
       y="684.50653" />
    <ellipse
       style="opacity:1;fill:none;fill-opacity:1;fill-rule:nonzero;stroke:#000000;stroke-width:34.34600067;stroke-linecap:butt;stroke-linejoin:miter;stroke-miterlimit:4;stroke-dasharray:none;stroke-opacity:1"
       id="ellipse4173"
       cx="91.428566"
       cy="763.07794"
       rx="43.436558"
       ry="42.606297" />
    <path
       inkscape:connector-curvature="0"
       id="path4175"
       d="m 12.857141,684.50653 157.142849,0 0,157.14285 -157.142849,0 z"
       style="opacity:1;fill:url(#radialGradient4177);fill-opacity:1;fill-rule:nonzero;stroke:none;stroke-width:2;stroke-linecap:butt;stroke-linejoin:miter;stroke-miterlimit:4;stroke-dasharray:none;stroke-opacity:1" />
    <rect
       y="864.31366"
       x="12.857141"
       height="157.14285"
       width="157.14285"
       id="rect4179"
       style="opacity:1;fill:#4389d7;fill-opacity:1;fill-rule:nonzero;stroke:none;stroke-width:2;stroke-linecap:butt;stroke-linejoin:miter;stroke-miterlimit:4;stroke-dasharray:none;stroke-opacity:1" />
    <path
       style="opacity:1;fill:url(#radialGradient4185);fill-opacity:1;fill-rule:nonzero;stroke:none;stroke-width:2;stroke-linecap:butt;stroke-linejoin:miter;stroke-miterlimit:4;stroke-dasharray:none;stroke-opacity:1"
       d="M 12.857422 864.31445 L 12.857422 1021.457 L 170 1021.457 L 170 864.31445 L 12.857422 864.31445 z M 91.427734 883.10547 C 124.52066 883.10547 152.03906 909.89212 152.03906 942.88477 C 152.03906 975.87741 124.52066 1002.6641 91.427734 1002.6641 C 58.334807 1002.6641 30.818359 975.87741 30.818359 942.88477 C 30.818359 909.89212 58.334807 883.10547 91.427734 883.10547 z M 91.427734 917.45117 C 76.541964 917.45117 65.164062 928.81579 65.164062 942.88477 C 65.164064 956.95374 76.541964 968.31836 91.427734 968.31836 C 106.3135 968.31836 117.69141 956.95374 117.69141 942.88477 C 117.69141 928.81579 106.3135 917.45117 91.427734 917.45117 z "
       id="path4183" />
    <rect
       inkscape:export-ydpi="22.90909"
       inkscape:export-xdpi="22.90909"
       style="opacity:1;fill:#4389d7;fill-opacity:1;fill-rule:nonzero;stroke:none;stroke-width:2;stroke-linecap:butt;stroke-linejoin:miter;stroke-miterlimit:4;stroke-dasharray:none;stroke-opacity:1"
       id="rect4173"
       width="157.14285"
       height="157.14285"
       x="210.28572"
       y="513.79077" />
    <ellipse
       style="opacity:1;fill:none;fill-opacity:1;fill-rule:nonzero;stroke:#ffdc3a;stroke-width:34.34600067;stroke-linecap:butt;stroke-linejoin:miter;stroke-miterlimit:4;stroke-dasharray:none;stroke-opacity:1"
       id="ellipse4175"
       cx="288.85712"
       cy="592.36218"
       rx="43.436558"
       ry="42.606297" />
    <rect
       style="opacity:1;fill:#4389d7;fill-opacity:1;fill-rule:nonzero;stroke:none;stroke-width:2;stroke-linecap:butt;stroke-linejoin:miter;stroke-miterlimit:4;stroke-dasharray:none;stroke-opacity:1"
       id="rect4180"
       width="157.14285"
       height="157.14285"
       x="421.42859"
       y="513.79077"
       inkscape:export-xdpi="22.90909"
       inkscape:export-ydpi="22.90909" />
    <path
       inkscape:connector-curvature="0"
       id="path4182"
       d="M 534.28501,533.79113 500,568.07614 l -34.285,-34.28501 -24.28608,24.28608 34.285,34.28501 -34.28501,34.28501 24.28609,24.28608 34.28501,-34.28501 34.28501,34.28501 24.28608,-24.28608 -34.28501,-34.28501 34.28501,-34.28501 -24.28609,-24.28608 z"
       style="opacity:1;fill:#000000;fill-opacity:0.15686275;fill-rule:nonzero;stroke:none;stroke-width:2;stroke-linecap:butt;stroke-linejoin:miter;stroke-miterlimit:4;stroke-dasharray:none;stroke-opacity:1" />
    <flowRoot
       xml:space="preserve"
       id="flowRoot4170"
       style="font-style:normal;font-variant:normal;font-weight:normal;font-stretch:normal;font-size:17.5px;line-height:125%;font-family:'Comic Sans MS';-inkscape-font-specification:'Comic Sans MS, Normal';text-align:start;letter-spacing:0px;word-spacing:0px;writing-mode:lr-tb;text-anchor:start;fill:#000000;fill-opacity:1;stroke:none;stroke-width:1px;stroke-linecap:butt;stroke-linejoin:miter;stroke-opacity:1"><flowRegion
         id="flowRegion4172"><rect
           id="rect4174"
           width="1133.3911"
           height="220.21326"
           x="-290.92392"
           y="-553.78033" /></flowRegion><flowPara
         id="flowPara4176"
         style="-inkscape-font-specification:'League Spartan Bold';font-family:'League Spartan';font-weight:bold;font-style:normal;font-stretch:normal;font-variant:normal;font-size:80px">Memoz</flowPara></flowRoot>    <rect
       style="opacity:1;fill:#4389d7;fill-opacity:1;fill-rule:nonzero;stroke:none;stroke-width:2;stroke-linecap:butt;stroke-linejoin:miter;stroke-miterlimit:4;stroke-dasharray:none;stroke-opacity:1"
       id="rect4210"
       width="150"
       height="150"
       x="421.42859"
       y="-301.96857"
       inkscape:export-xdpi="135"
       inkscape:export-ydpi="135" />
    <rect
       y="-301.96857"
       x="596.42859"
       height="150"
       width="150"
       id="rect4212"
       style="opacity:1;fill:#4389d7;fill-opacity:1;fill-rule:nonzero;stroke:none;stroke-width:2;stroke-linecap:butt;stroke-linejoin:miter;stroke-miterlimit:4;stroke-dasharray:none;stroke-opacity:1"
       inkscape:export-xdpi="135"
       inkscape:export-ydpi="135" />
    <rect
       style="opacity:1;fill:#4389d7;fill-opacity:1;fill-rule:nonzero;stroke:none;stroke-width:2;stroke-linecap:butt;stroke-linejoin:miter;stroke-miterlimit:4;stroke-dasharray:none;stroke-opacity:1"
       id="rect4214"
       width="150"
       height="150"
       x="771.42859"
       y="-301.96857"
       inkscape:export-xdpi="135"
       inkscape:export-ydpi="135" />
    <rect
       y="-301.96857"
       x="946.42859"
       height="150"
       width="150"
       id="rect4216"
       style="opacity:1;fill:#4389d7;fill-opacity:1;fill-rule:nonzero;stroke:none;stroke-width:2;stroke-linecap:butt;stroke-linejoin:miter;stroke-miterlimit:4;stroke-dasharray:none;stroke-opacity:1"
       inkscape:export-xdpi="135"
       inkscape:export-ydpi="135" />
    <rect
       style="opacity:1;fill:#4389d7;fill-opacity:1;fill-rule:nonzero;stroke:none;stroke-width:2;stroke-linecap:butt;stroke-linejoin:miter;stroke-miterlimit:4;stroke-dasharray:none;stroke-opacity:1"
       id="rect4218"
       width="150"
       height="150"
       x="1121.4286"
       y="-301.96857"
       inkscape:export-xdpi="135"
       inkscape:export-ydpi="135" />
    <path
       inkscape:connector-curvature="0"
       id="path4195"
       style="font-style:normal;font-variant:normal;font-weight:bold;font-stretch:normal;font-size:80px;line-height:125%;font-family:'League Spartan';-inkscape-font-specification:'League Spartan Bold';text-align:start;letter-spacing:0px;word-spacing:0px;writing-mode:lr-tb;text-anchor:start;fill:#000000;fill-opacity:1;stroke:none;stroke-width:1px;stroke-linecap:butt;stroke-linejoin:miter;stroke-opacity:1"
       d="m 517.94859,-193.96857 15.04,0 -5.92,-66 -16,0 -14.64,38.08 -14.64,-38.08 -16,0 -5.92,66 15.04,0 3.12,-39.12 0.4,0 13.52,38.72 8.96,0 13.52,-38.72 0.4,0 3.12,39.12 z"
       inkscape:export-xdpi="135"
       inkscape:export-ydpi="135" />
    <path
       inkscape:connector-curvature="0"
       id="path4197"
       style="font-style:normal;font-variant:normal;font-weight:bold;font-stretch:normal;font-size:80px;line-height:125%;font-family:'League Spartan';-inkscape-font-specification:'League Spartan Bold';text-align:start;letter-spacing:0px;word-spacing:0px;writing-mode:lr-tb;text-anchor:start;fill:#000000;fill-opacity:1;stroke:none;stroke-width:1px;stroke-linecap:butt;stroke-linejoin:miter;stroke-opacity:1"
       d="m 693.62859,-225.00857 c 0.08,-0.48 0.08,-1.36 0.08,-1.92 0,-14.4 -9.52,-21.76 -22,-21.76 -12.4,0 -22.56,9.76 -22.56,21.76 0,11.92 10.16,21.68 22.56,21.68 9.12,0 16.64,-2.96 21.28,-10.72 l -10.24,-5.12 c -3.44,3.68 -5.44,4.56 -10,4.56 -3.6,0 -8.88,-2.16 -8.88,-8.48 l 29.76,0 z m -29.36,-7.84 c 0.24,-3.76 2.96,-6.64 7.84,-6.64 4.16,0 7.12,2.32 7.76,6.64 l -15.6,0 z"
       inkscape:export-xdpi="135"
       inkscape:export-ydpi="135" />
    <path
       inkscape:connector-curvature="0"
       id="path4199"
       style="font-style:normal;font-variant:normal;font-weight:bold;font-stretch:normal;font-size:80px;line-height:125%;font-family:'League Spartan';-inkscape-font-specification:'League Spartan Bold';text-align:start;letter-spacing:0px;word-spacing:0px;writing-mode:lr-tb;text-anchor:start;fill:#000000;fill-opacity:1;stroke:none;stroke-width:1px;stroke-linecap:butt;stroke-linejoin:miter;stroke-opacity:1"
       d="m 811.42859,-205.84857 14.16,0 0,-24 c 0,-3.28 1.84,-6.88 6.56,-6.88 5.04,0 7.2,3.6 7.2,7.68 l 0,23.2 14.16,0 0,-24.48 c 0.16,-3.12 2.08,-6.4 6.56,-6.4 5.04,0 7.2,3.6 7.2,7.68 l 0,23.2 14.16,0 0,-27.04 c 0,-11.44 -8.48,-15.2 -16,-15.2 -4.48,0 -9.28,2.32 -13.6,7.52 -2.88,-5.52 -8.88,-7.52 -14.32,-7.52 -4.48,0 -8.56,2.32 -11.76,5.52 l -0.16,0 0,-4.32 -14.16,0 0,41.04 z"
       inkscape:export-xdpi="135"
       inkscape:export-ydpi="135" />
    <path
       inkscape:connector-curvature="0"
       id="path4201"
       style="font-style:normal;font-variant:normal;font-weight:bold;font-stretch:normal;font-size:80px;line-height:125%;font-family:'League Spartan';-inkscape-font-specification:'League Spartan Bold';text-align:start;letter-spacing:0px;word-spacing:0px;writing-mode:lr-tb;text-anchor:start;fill:#ffdc3a;fill-opacity:1;stroke:none;stroke-width:1px;stroke-linecap:butt;stroke-linejoin:miter;stroke-opacity:1"
       d="m 996.82859,-226.92857 c 0,12.64 9.92001,21.68 24.72001,21.68 14.16,0 24.48,-9.04 24.48,-21.68 0,-12.8 -10.88,-21.76 -24.48,-21.76 -13.84,0 -24.72001,8.96 -24.72001,21.76 z m 15.04001,0 c 0,-5.68 4.24,-9.68 9.6,-9.68 5.28,0 9.52,4 9.52,9.68 0,5.6 -4,9.6 -9.52,9.6 -5.76,0 -9.6,-4 -9.6,-9.6 z"
       inkscape:export-xdpi="135"
       inkscape:export-ydpi="135" />
    <path
       inkscape:connector-curvature="0"
       id="path4203"
       style="font-style:normal;font-variant:normal;font-weight:bold;font-stretch:normal;font-size:80px;line-height:125%;font-family:'League Spartan';-inkscape-font-specification:'League Spartan Bold';text-align:start;letter-spacing:0px;word-spacing:0px;writing-mode:lr-tb;text-anchor:start;fill:#000000;fill-opacity:1;stroke:none;stroke-width:1px;stroke-linecap:butt;stroke-linejoin:miter;stroke-opacity:1"
       d="m 1218.4686,-247.48857 -40.72,0 0,10.8 16.96,0 -20.32,30.24 42.48,0 0,-10.8 -18.72,0 20.32,-30.24 z"
       inkscape:export-xdpi="135"
       inkscape:export-ydpi="135" />
    <rect
       y="788.07648"
       x="438.85715"
       height="157.14285"
       width="157.14285"
       id="rect4224"
       style="opacity:1;fill:#4389d7;fill-opacity:1;fill-rule:nonzero;stroke:none;stroke-width:2;stroke-linecap:butt;stroke-linejoin:miter;stroke-miterlimit:4;stroke-dasharray:none;stroke-opacity:1"
       inkscape:export-xdpi="18.327276"
       inkscape:export-ydpi="18.327276"
       ry="0" />
    <ellipse
       ry="28.077452"
       rx="28.07741"
       cy="897.93365"
       cx="486.14282"
       id="ellipse4226"
       style="opacity:1;fill:none;fill-opacity:1;fill-rule:nonzero;stroke:#ffdc3a;stroke-width:22.41655922;stroke-linecap:butt;stroke-linejoin:miter;stroke-miterlimit:4;stroke-dasharray:none;stroke-opacity:1" />
    <path
       style="opacity:1;fill:#000000;fill-opacity:0.15686275;fill-rule:nonzero;stroke:none;stroke-width:2;stroke-linecap:butt;stroke-linejoin:miter;stroke-miterlimit:4;stroke-dasharray:none;stroke-opacity:1"
       d="m 571.71045,796.07648 -22.99619,22.99617 -22.99618,-22.99617 -16.28954,16.28953 22.99618,22.99618 -22.99619,22.99617 16.28955,16.28954 22.99619,-22.99617 22.99618,22.99617 L 588,858.35836 565.00381,835.36219 588,812.36601 571.71045,796.07648 Z"
       id="path4232"
       inkscape:connector-curvature="0" />
  </g>
</svg>
